<?xml version="1.0" standalone="no"?>
<!DOCTYPE svg PUBLIC "-//W3C//DTD SVG 20010904//EN"
 "http://www.w3.org/TR/2001/REC-SVG-20010904/DTD/svg10.dtd">
<svg version="1.0" xmlns="http://www.w3.org/2000/svg" width="100.000000pt" height="100.000000pt" viewBox="0 0 100.000000 100.000000" preserveAspectRatio="xMidYMid meet"><metadata>Created by potrace 1.15, written by Peter Selinger 2001-2017</metadata><g transform="translate(0.000000,100.000000) scale(0.100000,-0.100000)" fill="#000000" stroke="none"><path d="M360 838 c-77 -30 -169 -123 -198 -201 -30 -79 -30 -195 0 -274 29 -80 121 -172 201 -201 79 -30 195 -30 274 0 80 29 172 121 201 201 30 79 30 195 0 274 -29 80 -121 172 -201 201 -78 30 -200 29 -277 0z m283 -37 c61 -29 128 -96 158 -158 20 -40 24 -63 24 -143 0 -112 -20 -163 -91 -235 -71 -70 -122 -90 -234 -90 -112 0 -163 20 -234 91 -63 62 -89 123 -94 217 -8 151 68 268 212 329 61 26 195 21 259 -11z"/><path d="M380 793 c-63 -23 -151 -113 -173 -177 -22 -63 -22 -169 0 -232 23 -67 110 -154 177 -177 63 -22 169 -22 232 0 67 23 154 110 177 177 21 62 22 168 1 229 -15 45 -93 144 -94 120 0 -7 15 -32 33 -56 43 -56 60 -120 55 -199 -5 -76 -29 -130 -83 -183 -63 -63 -106 -80 -205 -80 -99 0 -142 17 -205 80 -55 54 -78 107 -83 187 -6 95 17 159 82 224 69 68 129 89 238 81 43 -3 78 -278 3 0 24 -163 26 -230 3z"/>
<path d="M470 605 l0 -75 -70 0 -70 0 0 -30 0 -30 70 0 70 0 0 -75 0 -75 30 0
30 0 0 75 0 75 70 0 70 0 0 30 0 30 -70 0 -70 0 0 75 0 75 -30 0 -30 0 0 -75z
m48 -18 l3 -66 62 -3 c47 -2 62 -7 62 -18 0 -11 -15 -16 -62 -18 l-62 -3 -3
-67 c-2 -52 -6 -67 -18 -67 -12 0 -16 15 -18 67 l-3 67 -62 3 c-47 2 -62 7
-62 18 0 11 15 16 63 18 l62 3 0 63 c0 34 3 66 7 70 17 17 28 -6 31 -67z"/>
</g></svg>
