<?xml version="1.0" standalone="no"?>
<!DOCTYPE svg PUBLIC "-//W3C//DTD SVG 20010904//EN"
 "http://www.w3.org/TR/2001/REC-SVG-20010904/DTD/svg10.dtd">
<svg version="1.0" xmlns="http://www.w3.org/2000/svg"
 width="50.000000pt" height="50.000000pt" viewBox="0 0 50.000000 50.000000"
 preserveAspectRatio="xMidYMid meet">
<metadata>
Created by potrace 1.15, written by Peter Selinger 2001-2017
</metadata>
<g transform="translate(0.000000,50.000000) scale(0.100000,-0.100000)"
fill="#000000" stroke="none">
<path d="M57 442 c-15 -16 -17 -45 -17 -194 0 -157 2 -177 18 -191 16 -15 45
-17 194 -17 157 0 177 2 191 18 14 15 17 42 17 157 0 172 -17 171 -22 -2 -2
-83 -7 -126 -16 -135 -19 -19 -325 -19 -344 0 -19 19 -19 325 0 344 9 9 57 14
162 16 83 2 150 8 150 13 0 5 -68 9 -158 9 -141 0 -161 -2 -175 -18z"/>
</g>
</svg>
