<?xml version="1.0" standalone="no"?>
<!DOCTYPE svg PUBLIC "-//W3C//DTD SVG 20010904//EN"
 "http://www.w3.org/TR/2001/REC-SVG-20010904/DTD/svg10.dtd">
<svg version="1.0" xmlns="http://www.w3.org/2000/svg"
 width="100.000000pt" height="100.000000pt" viewBox="0 0 100.000000 100.000000"
 preserveAspectRatio="xMidYMid meet">
<metadata>
Created by potrace 1.15, written by Peter Selinger 2001-2017
</metadata>
<g transform="translate(0.000000,100.000000) scale(0.100000,-0.100000)"
fill="#000000" stroke="none">
<path d="M430 845 c0 -24 -2 -25 -70 -25 -63 0 -71 -2 -86 -24 -10 -16 -27
-26 -47 -28 -29 -3 -32 -6 -32 -38 0 -28 4 -36 21 -38 19 -3 21 -14 38 -240
12 -164 22 -244 32 -259 14 -23 18 -23 214 -23 196 0 200 0 214 23 10 15 20
95 32 259 17 226 19 237 38 240 17 2 21 10 21 38 0 32 -3 35 -32 38 -20 2 -37
12 -47 28 -15 22 -23 24 -86 24 -68 0 -70 1 -70 25 0 24 -2 25 -70 25 -68 0
-70 -1 -70 -25z m266 -62 c15 -16 15 -17 -2 -24 -13 -5 -2 -8 31 -10 36 -3 50
-8 50 -19 0 -13 -37 -15 -275 -15 -238 0 -275 2 -275 15 0 13 31 16 200 20
l200 5 -169 5 c-162 5 -169 6 -152 23 15 15 39 17 196 17 154 0 181 -2 196
-17z m-391 -401 c13 -14 15 14 5 119 -5 63 -10 131 -10 152 l0 37 200 0 c193
0 200 -1 200 -20 0 -27 18 -25 23 3 10 51 6 -58 -8 -238 -18 -227 -19 -231
-47 -239 -30 -8 -306 -8 -336 0 -12 4 -24 16 -27 28 -7 31 -35 395 -34 436 1
19 8 -34 15 -119 7 -85 16 -156 19 -159z"/>
<path d="M350 583 c0 -10 26 -43 57 -75 l57 -58 -57 -58 c-57 -58 -72 -92 -40
-92 10 0 43 26 75 57 l58 57 58 -57 c32 -31 65 -57 75 -57 32 0 17 34 -40 92
l-57 58 57 58 c57 58 72 92 40 92 -10 0 -43 -26 -75 -57 l-58 -57 -58 57 c-58
57 -92 72 -92 40z"/>
</g>
</svg>
